<svg width="113" height="113" viewBox="0 0 113 113" fill="none" xmlns="http://www.w3.org/2000/svg">
<mask id="path-1-inside-1_27_81" fill="white">
<path fill-rule="evenodd" clip-rule="evenodd" d="M83.8743 1.09171C84.038 0.695224 84.3404 0.371903 84.7252 0.182147C85.1099 -0.00760829 85.5505 -0.0508196 85.9647 0.0605857L93.1826 2.03102C93.5961 2.14519 93.9539 2.406 94.1892 2.76471C94.4244 3.12343 94.521 3.55553 94.4609 3.98027L93.564 10.2871C97.4554 12.5259 100.591 15.7535 102.738 19.539L109.059 18.6915C109.487 18.6345 109.92 18.7359 110.278 18.9766C110.636 19.2173 110.893 19.5806 111.001 19.998L112.908 27.23C113.016 27.6467 112.968 28.0885 112.773 28.4721C112.578 28.8558 112.249 29.155 111.849 29.3135L105.945 31.6865C105.949 36.1102 104.766 40.4539 102.519 44.2648L106.404 49.3145C106.666 49.6552 106.795 50.08 106.766 50.5091C106.738 50.9383 106.554 51.3422 106.248 51.6451L100.944 56.9066C100.64 57.2099 100.235 57.3915 99.8057 57.4175C99.3766 57.4435 98.9528 57.3121 98.6137 57.0479L93.5922 53.107C89.7654 55.3217 85.414 56.468 80.9928 56.4264L78.5632 62.3236C78.3995 62.7201 78.0971 63.0434 77.7123 63.2331C77.3276 63.4229 76.887 63.4661 76.4728 63.3547L69.2549 61.3913C68.8387 61.2785 68.4782 61.0172 68.2414 60.6568C68.0046 60.2964 67.9079 59.8618 67.9695 59.435L68.8735 53.1282C65.0422 50.9213 61.8738 47.7261 59.6993 43.8763L53.3784 44.7238C52.9509 44.7808 52.5174 44.6793 52.1596 44.4387C51.8019 44.198 51.5445 43.8347 51.4362 43.4173L49.5293 36.1853C49.4216 35.7686 49.4698 35.3268 49.6649 34.9432C49.86 34.5595 50.1885 34.2603 50.5887 34.1018L56.4929 31.7288C56.49 27.3053 57.6728 22.9618 59.9183 19.1505L56.0339 14.1008C55.7715 13.7601 55.6425 13.3353 55.6711 12.9062C55.6997 12.477 55.8839 12.0731 56.1892 11.7702L61.4932 6.50865C61.7979 6.20543 62.2027 6.02378 62.6318 5.99778C63.0609 5.97177 63.4847 6.1032 63.8238 6.3674L68.8453 10.3083C72.6721 8.09364 77.0235 6.94726 81.4447 6.9889L83.8743 1.09171ZM94.8494 35.4155C94.3625 37.2055 93.5277 38.882 92.3929 40.3494C91.258 41.8168 89.8453 43.0464 88.2352 43.9678C86.6252 44.8892 84.8495 45.4845 83.0094 45.7196C81.1693 45.9548 79.3009 45.8252 77.5109 45.3383C75.7209 44.8514 74.0444 44.0166 72.577 42.8818C71.1096 41.7469 69.88 40.3342 68.9586 38.7241C67.0977 35.4725 66.6047 31.6149 67.5881 27.9998C68.5715 24.3848 70.9507 21.3084 74.2023 19.4475C77.4538 17.5866 81.3115 17.0936 84.9266 18.077C88.5416 19.0604 91.618 21.4396 93.4789 24.6912C95.3398 27.9427 95.8328 31.8004 94.8494 35.4155ZM40.8001 43.8551C40.7485 43.4281 40.5427 43.0346 40.2215 42.7485C39.9003 42.4625 39.4858 42.3035 39.0556 42.3014H31.5764C31.1462 42.3015 30.7307 42.4588 30.4082 42.7436C30.0857 43.0284 29.8783 43.4211 29.8249 43.8481L29.0481 50.0631C25.934 50.7673 22.9629 51.9974 20.2623 53.7003L15.3186 49.8583C14.9795 49.5941 14.5556 49.4627 14.1266 49.4887C13.6975 49.5147 13.2926 49.6963 12.9879 49.9995L7.69813 55.2893C7.39491 55.594 7.21326 55.9989 7.18725 56.428C7.16125 56.857 7.29267 57.2809 7.55688 57.62L11.3989 62.5637C9.69596 65.2643 8.46594 68.2354 7.76169 71.3495L1.54669 72.1263C1.12094 72.1795 0.729136 72.3859 0.44449 72.707C0.159844 73.028 0.0018378 73.4417 0 73.8708V81.3429C0.000121432 81.7732 0.157355 82.1886 0.44216 82.5111C0.726965 82.8336 1.11974 83.041 1.54669 83.0944L7.76169 83.8713C8.475 87.0353 9.72506 89.9945 11.3989 92.657L7.55688 97.6008C7.29267 97.9399 7.16125 98.3637 7.18725 98.7928C7.21326 99.2218 7.39491 99.6267 7.69813 99.9314L12.9879 105.221C13.2926 105.524 13.6975 105.706 14.1266 105.732C14.5556 105.758 14.9795 105.627 15.3186 105.362L20.2623 101.52C22.9249 103.194 25.8841 104.444 29.0481 105.158L29.8249 111.373C29.8765 111.8 30.0823 112.193 30.4035 112.479C30.7247 112.765 31.1392 112.924 31.5694 112.926H39.0415C39.4718 112.926 39.8872 112.769 40.2097 112.484C40.5322 112.199 40.7396 111.807 40.793 111.38L41.5699 105.165C44.684 104.461 47.6552 103.231 50.3556 101.528L55.2994 105.37C55.6385 105.634 56.0623 105.765 56.4914 105.739C56.9204 105.713 57.3253 105.531 57.63 105.228L62.9198 99.9385C63.223 99.6338 63.4047 99.2289 63.4307 98.7998C63.4567 98.3707 63.3253 97.9469 63.0611 97.6078L59.2191 92.6641C60.8929 90.0015 62.1429 87.0423 62.8562 83.8783L69.0712 83.1015C69.4983 83.0499 69.8918 82.8441 70.1779 82.5229C70.4639 82.2017 70.6229 81.7871 70.625 81.357V73.8849C70.6249 73.4546 70.4676 73.0392 70.1828 72.7167C69.898 72.3942 69.5053 72.1867 69.0783 72.1334L62.8633 71.3565C62.1591 68.2425 60.929 65.2714 59.2261 62.5708L63.0681 57.627C63.3323 57.2879 63.4638 56.8641 63.4377 56.435C63.4117 56.0059 63.2301 55.6011 62.9269 55.2964L57.63 49.9995C57.3253 49.6963 56.9204 49.5147 56.4914 49.4887C56.0623 49.4627 55.6385 49.5941 55.2994 49.8583L50.3556 53.7003C47.6567 52.0006 44.6881 50.773 41.5769 50.0701L40.8001 43.8551ZM52.9688 77.6139C52.9687 82.2966 51.1085 86.7876 47.7974 90.0988C44.4862 93.4099 39.9952 95.2701 35.3125 95.2701C30.6298 95.2701 26.1388 93.4099 22.8276 90.0988C19.5165 86.7876 17.6562 82.2966 17.6562 77.6139C17.6562 72.9312 19.5165 68.4402 22.8276 65.129C26.1388 61.8179 30.6298 59.9576 35.3125 59.9576C39.9952 59.9576 44.4862 61.8179 47.7974 65.129C51.1085 68.4402 52.9688 72.9312 52.9688 77.6139Z"/>
</mask>
<path fill-rule="evenodd" clip-rule="evenodd" d="M83.8743 1.09171C84.038 0.695224 84.3404 0.371903 84.7252 0.182147C85.1099 -0.00760829 85.5505 -0.0508196 85.9647 0.0605857L93.1826 2.03102C93.5961 2.14519 93.9539 2.406 94.1892 2.76471C94.4244 3.12343 94.521 3.55553 94.4609 3.98027L93.564 10.2871C97.4554 12.5259 100.591 15.7535 102.738 19.539L109.059 18.6915C109.487 18.6345 109.92 18.7359 110.278 18.9766C110.636 19.2173 110.893 19.5806 111.001 19.998L112.908 27.23C113.016 27.6467 112.968 28.0885 112.773 28.4721C112.578 28.8558 112.249 29.155 111.849 29.3135L105.945 31.6865C105.949 36.1102 104.766 40.4539 102.519 44.2648L106.404 49.3145C106.666 49.6552 106.795 50.08 106.766 50.5091C106.738 50.9383 106.554 51.3422 106.248 51.6451L100.944 56.9066C100.64 57.2099 100.235 57.3915 99.8057 57.4175C99.3766 57.4435 98.9528 57.3121 98.6137 57.0479L93.5922 53.107C89.7654 55.3217 85.414 56.468 80.9928 56.4264L78.5632 62.3236C78.3995 62.7201 78.0971 63.0434 77.7123 63.2331C77.3276 63.4229 76.887 63.4661 76.4728 63.3547L69.2549 61.3913C68.8387 61.2785 68.4782 61.0172 68.2414 60.6568C68.0046 60.2964 67.9079 59.8618 67.9695 59.435L68.8735 53.1282C65.0422 50.9213 61.8738 47.7261 59.6993 43.8763L53.3784 44.7238C52.9509 44.7808 52.5174 44.6793 52.1596 44.4387C51.8019 44.198 51.5445 43.8347 51.4362 43.4173L49.5293 36.1853C49.4216 35.7686 49.4698 35.3268 49.6649 34.9432C49.86 34.5595 50.1885 34.2603 50.5887 34.1018L56.4929 31.7288C56.49 27.3053 57.6728 22.9618 59.9183 19.1505L56.0339 14.1008C55.7715 13.7601 55.6425 13.3353 55.6711 12.9062C55.6997 12.477 55.8839 12.0731 56.1892 11.7702L61.4932 6.50865C61.7979 6.20543 62.2027 6.02378 62.6318 5.99778C63.0609 5.97177 63.4847 6.1032 63.8238 6.3674L68.8453 10.3083C72.6721 8.09364 77.0235 6.94726 81.4447 6.9889L83.8743 1.09171ZM94.8494 35.4155C94.3625 37.2055 93.5277 38.882 92.3929 40.3494C91.258 41.8168 89.8453 43.0464 88.2352 43.9678C86.6252 44.8892 84.8495 45.4845 83.0094 45.7196C81.1693 45.9548 79.3009 45.8252 77.5109 45.3383C75.7209 44.8514 74.0444 44.0166 72.577 42.8818C71.1096 41.7469 69.88 40.3342 68.9586 38.7241C67.0977 35.4725 66.6047 31.6149 67.5881 27.9998C68.5715 24.3848 70.9507 21.3084 74.2023 19.4475C77.4538 17.5866 81.3115 17.0936 84.9266 18.077C88.5416 19.0604 91.618 21.4396 93.4789 24.6912C95.3398 27.9427 95.8328 31.8004 94.8494 35.4155ZM40.8001 43.8551C40.7485 43.4281 40.5427 43.0346 40.2215 42.7485C39.9003 42.4625 39.4858 42.3035 39.0556 42.3014H31.5764C31.1462 42.3015 30.7307 42.4588 30.4082 42.7436C30.0857 43.0284 29.8783 43.4211 29.8249 43.8481L29.0481 50.0631C25.934 50.7673 22.9629 51.9974 20.2623 53.7003L15.3186 49.8583C14.9795 49.5941 14.5556 49.4627 14.1266 49.4887C13.6975 49.5147 13.2926 49.6963 12.9879 49.9995L7.69813 55.2893C7.39491 55.594 7.21326 55.9989 7.18725 56.428C7.16125 56.857 7.29267 57.2809 7.55688 57.62L11.3989 62.5637C9.69596 65.2643 8.46594 68.2354 7.76169 71.3495L1.54669 72.1263C1.12094 72.1795 0.729136 72.3859 0.44449 72.707C0.159844 73.028 0.0018378 73.4417 0 73.8708V81.3429C0.000121432 81.7732 0.157355 82.1886 0.44216 82.5111C0.726965 82.8336 1.11974 83.041 1.54669 83.0944L7.76169 83.8713C8.475 87.0353 9.72506 89.9945 11.3989 92.657L7.55688 97.6008C7.29267 97.9399 7.16125 98.3637 7.18725 98.7928C7.21326 99.2218 7.39491 99.6267 7.69813 99.9314L12.9879 105.221C13.2926 105.524 13.6975 105.706 14.1266 105.732C14.5556 105.758 14.9795 105.627 15.3186 105.362L20.2623 101.52C22.9249 103.194 25.8841 104.444 29.0481 105.158L29.8249 111.373C29.8765 111.8 30.0823 112.193 30.4035 112.479C30.7247 112.765 31.1392 112.924 31.5694 112.926H39.0415C39.4718 112.926 39.8872 112.769 40.2097 112.484C40.5322 112.199 40.7396 111.807 40.793 111.38L41.5699 105.165C44.684 104.461 47.6552 103.231 50.3556 101.528L55.2994 105.37C55.6385 105.634 56.0623 105.765 56.4914 105.739C56.9204 105.713 57.3253 105.531 57.63 105.228L62.9198 99.9385C63.223 99.6338 63.4047 99.2289 63.4307 98.7998C63.4567 98.3707 63.3253 97.9469 63.0611 97.6078L59.2191 92.6641C60.8929 90.0015 62.1429 87.0423 62.8562 83.8783L69.0712 83.1015C69.4983 83.0499 69.8918 82.8441 70.1779 82.5229C70.4639 82.2017 70.6229 81.7871 70.625 81.357V73.8849C70.6249 73.4546 70.4676 73.0392 70.1828 72.7167C69.898 72.3942 69.5053 72.1867 69.0783 72.1334L62.8633 71.3565C62.1591 68.2425 60.929 65.2714 59.2261 62.5708L63.0681 57.627C63.3323 57.2879 63.4638 56.8641 63.4377 56.435C63.4117 56.0059 63.2301 55.6011 62.9269 55.2964L57.63 49.9995C57.3253 49.6963 56.9204 49.5147 56.4914 49.4887C56.0623 49.4627 55.6385 49.5941 55.2994 49.8583L50.3556 53.7003C47.6567 52.0006 44.6881 50.773 41.5769 50.0701L40.8001 43.8551ZM52.9688 77.6139C52.9687 82.2966 51.1085 86.7876 47.7974 90.0988C44.4862 93.4099 39.9952 95.2701 35.3125 95.2701C30.6298 95.2701 26.1388 93.4099 22.8276 90.0988C19.5165 86.7876 17.6562 82.2966 17.6562 77.6139C17.6562 72.9312 19.5165 68.4402 22.8276 65.129C26.1388 61.8179 30.6298 59.9576 35.3125 59.9576C39.9952 59.9576 44.4862 61.8179 47.7974 65.129C51.1085 68.4402 52.9688 72.9312 52.9688 77.6139Z" fill="#FCFCFC" stroke="#4516A2" stroke-width="2" mask="url(#path-1-inside-1_27_81)"/>
</svg>
