<svg width="150" height="150" viewBox="0 0 150 150" fill="none" xmlns="http://www.w3.org/2000/svg">
<g id="ei:arrow-down">
<path id="Vector" d="M75 126C46.8 126 24 103.2 24 75C24 46.8 46.8 24 75 24C103.2 24 126 46.8 126 75C126 103.2 103.2 126 75 126ZM75 30C50.1 30 30 50.1 30 75C30 99.9 50.1 120 75 120C99.9 120 120 99.9 120 75C120 50.1 99.9 30 75 30Z" fill="#FCFCFC"/>
<path id="Vector_2" d="M74.9999 103.2L45.8999 74.1L50.0999 69.9L74.9999 94.8L99.8999 69.9L104.1 74.1L74.9999 103.2Z" fill="#FCFCFC"/>
<path id="Vector_3" d="M72 48H78V99H72V48Z" fill="#FCFCFC"/>
</g>
</svg>
