<svg width="172" height="204" viewBox="0 0 172 204" fill="none" xmlns="http://www.w3.org/2000/svg">
<path d="M20.75 94.0059V180.006H151.25V94.0059C151.25 -10.8066 20.75 -9.19414 20.75 94.0059Z" fill="#40352D"/>
<path d="M30.2002 99.9184V180.006H141.575V99.9184C141.8 2.6309 30.2002 3.97465 30.2002 99.9184Z" fill="#4F4846"/>
<path d="M32 101.262V180.006H140V101.262C140 5.04964 32 6.66214 32 101.262Z" fill="#725477"/>
<path d="M14 180.006H158V188.068H14V180.006Z" fill="#4F4846"/>
<path d="M93.2 98.0371H130.55C129.2 65.5183 111.875 48.0496 93.2 44.8246V98.0371ZM80.825 98.0371V45.0933C62.15 48.3183 44.825 66.3246 43.475 98.0371H80.825ZM93.2 113.087H130.775V166.568H93.2V113.087ZM43.25 113.087H80.825V166.568H43.25V113.087Z" fill="#4F4846"/>
<path d="M92.3 96.9621H129.65C128.3 64.4434 110.975 46.9746 92.3 43.7496V96.9621ZM79.7 96.9621V44.0184C61.025 47.2434 43.7 65.2496 42.35 96.9621H79.7ZM92.3 112.012H129.875V165.493H92.3V112.012ZM42.125 112.012H79.7V165.493H42.125V112.012Z" fill="#40352D"/>
<path d="M120.875 93.7371H136.625V131.362H120.875V93.7371Z" fill="#392C0D"/>
<path d="M122 95.0808H135.5V130.018H122V95.0808Z" fill="#575551"/>
<path d="M131 126.793L130.1 119.537C130.55 119 131 118.193 131 117.387C131 115.775 130.1 114.7 128.75 114.7C127.4 114.7 126.5 115.775 126.5 117.387C126.5 118.193 126.95 119 127.4 119.537L126.5 126.793H131Z" fill="#1E1E1E"/>
<path d="M128.75 112.55C132.354 112.55 135.275 109.06 135.275 104.756C135.275 100.452 132.354 96.9622 128.75 96.9622C125.146 96.9622 122.225 100.452 122.225 104.756C122.225 109.06 125.146 112.55 128.75 112.55Z" fill="#575551"/>
<path d="M135.05 103.412C135.05 107.712 132.125 111.206 128.525 111.206C124.925 111.206 122 107.712 122 103.412C122 99.1122 124.925 95.6184 128.525 95.6184C132.125 95.6184 135.05 99.1122 135.05 103.412Z" fill="#392C0D"/>
</svg>
