<svg width="158" height="186" viewBox="0 0 158 186" fill="none" xmlns="http://www.w3.org/2000/svg">
<g id="emojione:door" clip-path="url(#clip0_27_59)" filter="url(#filter0_d_27_59)">
<path id="Vector" d="M13.75 80.9375V166.938H144.25V80.9375C144.25 -23.875 13.75 -22.2625 13.75 80.9375Z" fill="#40352D"/>
<path id="Vector_2" d="M23.2002 86.85V166.938H134.575V86.85C134.8 -10.4375 23.2002 -9.09371 23.2002 86.85Z" fill="#4F4846"/>
<path id="Vector_3" d="M25 88.1938V166.938H133V88.1938C133 -8.01872 25 -6.40622 25 88.1938Z" fill="#725477"/>
<path id="Vector_4" d="M7 166.938H151V175H7V166.938Z" fill="#4F4846"/>
<path id="Vector_5" d="M86.2 84.9687H123.55C122.2 52.45 104.875 34.9812 86.2 31.7562V84.9687ZM73.825 84.9687V32.025C55.15 35.25 37.825 53.2562 36.475 84.9687H73.825ZM86.2 100.019H123.775V153.5H86.2V100.019ZM36.25 100.019H73.825V153.5H36.25V100.019Z" fill="#4F4846"/>
<path id="Vector_6" d="M85.3 83.8938H122.65C121.3 51.375 103.975 33.9063 85.3 30.6813V83.8938ZM72.7 83.8938V30.95C54.025 34.175 36.7 52.1813 35.35 83.8938H72.7ZM85.3 98.9438H122.875V152.425H85.3V98.9438ZM35.125 98.9438H72.7V152.425H35.125V98.9438Z" fill="#40352D"/>
<path id="Vector_7" d="M113.875 80.6687H129.625V118.294H113.875V80.6687Z" fill="#392C0D"/>
<path id="Vector_8" d="M115 82.0125H128.5V116.95H115V82.0125Z" fill="#575551"/>
<path id="Vector_9" d="M124 113.725L123.1 106.469C123.55 105.931 124 105.125 124 104.319C124 102.706 123.1 101.631 121.75 101.631C120.4 101.631 119.5 102.706 119.5 104.319C119.5 105.125 119.95 105.931 120.4 106.469L119.5 113.725H124Z" fill="#C48FDD"/>
<path id="Vector_10" d="M121.75 99.4813C125.354 99.4813 128.275 95.9919 128.275 91.6875C128.275 87.3832 125.354 83.8938 121.75 83.8938C118.146 83.8938 115.225 87.3832 115.225 91.6875C115.225 95.9919 118.146 99.4813 121.75 99.4813Z" fill="#575551"/>
<path id="Vector_11" d="M128.05 90.3438C128.05 94.6438 125.125 98.1376 121.525 98.1376C117.925 98.1376 115 94.6438 115 90.3438C115 86.0438 117.925 82.55 121.525 82.55C125.125 82.55 128.05 86.0438 128.05 90.3438Z" fill="#392C0D"/>
</g>
<defs>
<filter id="filter0_d_27_59" x="0" y="0" width="158" height="186" filterUnits="userSpaceOnUse" color-interpolation-filters="sRGB">
<feFlood flood-opacity="0" result="BackgroundImageFix"/>
<feColorMatrix in="SourceAlpha" type="matrix" values="0 0 0 0 0 0 0 0 0 0 0 0 0 0 0 0 0 0 127 0" result="hardAlpha"/>
<feOffset dy="4"/>
<feGaussianBlur stdDeviation="3.5"/>
<feComposite in2="hardAlpha" operator="out"/>
<feColorMatrix type="matrix" values="0 0 0 0 0.759584 0 0 0 0 0.0761979 0 0 0 0 0.870833 0 0 0 0.81 0"/>
<feBlend mode="normal" in2="BackgroundImageFix" result="effect1_dropShadow_27_59"/>
<feBlend mode="normal" in="SourceGraphic" in2="effect1_dropShadow_27_59" result="shape"/>
</filter>
<clipPath id="clip0_27_59">
<rect width="144" height="172" fill="white" transform="translate(7 3)"/>
</clipPath>
</defs>
</svg>
