<svg width="256" height="256" viewBox="0 0 256 256" fill="none" xmlns="http://www.w3.org/2000/svg">
<path d="M240 102C240 172 136.21 228.66 131.79 231C130.625 231.627 129.323 231.955 128 231.955C126.677 231.955 125.375 231.627 124.21 231C119.79 228.66 16 172 16 102C16.0185 85.5623 22.5566 69.8031 34.1798 58.1798C45.8031 46.5566 61.5623 40.0185 78 40C98.65 40 116.73 48.88 128 63.89C139.27 48.88 157.35 40 178 40C194.438 40.0185 210.197 46.5566 221.82 58.1798C233.443 69.8031 239.981 85.5623 240 102Z" fill="#C213DE" fill-opacity="0.81"/>
</svg>
