<svg width="256" height="256" viewBox="0 0 256 256" fill="none" xmlns="http://www.w3.org/2000/svg">
<path d="M178 36C157.91 36 140.08 43.93 128 57.56C115.92 43.93 98.09 36 78 36C60.5022 36.0212 43.7272 42.9815 31.3543 55.3543C18.9815 67.7272 12.0212 84.5022 12 102C12 174.34 117.81 232.14 122.31 234.57C124.059 235.512 126.014 236.005 128 236.005C129.986 236.005 131.941 235.512 133.69 234.57C138.19 232.14 244 174.34 244 102C243.979 84.5022 237.018 67.7272 224.646 55.3543C212.273 42.9815 195.498 36.0212 178 36ZM172.51 178.36C158.583 190.178 143.694 200.815 128 210.16C112.306 200.815 97.4173 190.178 83.49 178.36C61.82 159.77 36 131.42 36 102C36 90.8609 40.425 80.178 48.3015 72.3015C56.178 64.425 66.8609 60 78 60C95.8 60 110.7 69.4 116.89 84.54C117.791 86.7471 119.329 88.6358 121.308 89.9653C123.286 91.2948 125.616 92.0048 128 92.0048C130.384 92.0048 132.714 91.2948 134.692 89.9653C136.671 88.6358 138.209 86.7471 139.11 84.54C145.3 69.4 160.2 60 178 60C189.139 60 199.822 64.425 207.698 72.3015C215.575 80.178 220 90.8609 220 102C220 131.42 194.18 159.77 172.51 178.36Z" fill="#C213DE" fill-opacity="0.81"/>
</svg>
