<svg width="115" height="115" viewBox="0 0 115 115" fill="none" xmlns="http://www.w3.org/2000/svg">
<circle cx="57.5" cy="57.5" r="54.5" fill="#C213DE" fill-opacity="0.81" stroke="#D9D9D9" stroke-width="6"/>
<path d="M71.9659 32.7273H78.6591V69.3239C78.6591 73.1023 77.7685 76.4759 75.9872 79.4446C74.224 82.3954 71.732 84.7254 68.5114 86.4347C65.2907 88.1259 61.5123 88.9716 57.1761 88.9716C52.84 88.9716 49.0616 88.1259 45.8409 86.4347C42.6203 84.7254 40.1193 82.3954 38.3381 79.4446C36.5748 76.4759 35.6932 73.1023 35.6932 69.3239V32.7273H42.3864V68.7841C42.3864 71.483 42.9801 73.8849 44.1676 75.9901C45.3551 78.0772 47.0464 79.7235 49.2415 80.929C51.4545 82.1165 54.0994 82.7102 57.1761 82.7102C60.2528 82.7102 62.8977 82.1165 65.1108 80.929C67.3239 79.7235 69.0152 78.0772 70.1847 75.9901C71.3722 73.8849 71.9659 71.483 71.9659 68.7841V32.7273Z" fill="white"/>
</svg>
