<svg width="223" height="223" viewBox="0 0 223 223" fill="none" xmlns="http://www.w3.org/2000/svg">
<path d="M126.144 160.476L78.6632 134.581C74.1056 139.105 68.3106 142.178 62.0087 143.413C55.7069 144.649 49.1804 143.991 43.252 141.522C37.3236 139.054 32.2587 134.885 28.6959 129.543C25.1331 124.2 23.2318 117.922 23.2318 111.5C23.2318 105.078 25.1331 98.8002 28.6959 93.4574C32.2587 88.1146 37.3236 83.9462 43.252 81.4777C49.1804 79.0093 55.7069 78.3512 62.0087 79.5866C68.3106 80.822 74.1056 83.8954 78.6632 88.4195L126.144 62.5237C124.515 54.8834 125.691 46.9124 129.457 40.0681C133.223 33.2237 139.326 27.9636 146.651 25.2495C153.976 22.5354 162.034 22.5488 169.35 25.2872C176.666 28.0255 182.752 33.3059 186.495 40.1627C190.238 47.0194 191.388 54.9944 189.734 62.6292C188.08 70.2639 183.733 77.0483 177.489 81.7416C171.244 86.435 163.518 88.7236 155.725 88.1891C147.931 87.6545 140.591 84.3325 135.045 78.8305L87.5647 104.726C88.5105 109.19 88.5105 113.801 87.5647 118.264L135.045 144.17C140.591 138.668 147.931 135.346 155.725 134.811C163.518 134.276 171.244 136.565 177.489 141.258C183.733 145.952 188.08 152.736 189.734 160.371C191.388 168.006 190.238 175.981 186.495 182.837C182.752 189.694 176.666 194.975 169.35 197.713C162.034 200.451 153.976 200.465 146.651 197.751C139.326 195.036 133.223 189.776 129.457 182.932C125.691 176.088 124.515 168.117 126.144 160.476Z" fill="#C213DE" fill-opacity="0.81"/>
</svg>
